<?xml version="1.0" encoding="UTF-8"?>
<svg width="16" height="16" viewBox="0 0 400 400" xmlns="http://www.w3.org/2000/svg" xmlns:xlink="http://www.w3.org/1999/xlink" version="1.1">
 <g id="p">
  <path id="Ellipse" d="M199.36 264.712 C144.585 264.712 100.181 220.307 100.181 165.532 100.181 110.757 144.585 66.352 199.36 66.352 222.562 66.352 243.902 74.321 260.796 87.669 L236.813 111.923 C226.23 104.437 213.309 100.038 199.36 100.038 163.498 100.038 134.425 129.111 134.425 164.973 134.425 200.836 163.498 229.909 199.36 229.909 235.223 229.909 264.296 200.836 264.296 164.973 264.296 152.632 260.853 141.095 254.876 131.27 L279.194 106.677 C291.352 123.14 298.54 143.496 298.54 165.532 298.54 220.307 254.135 264.712 199.36 264.712 Z" fill="#009051" fill-opacity="1" stroke="none"/>
  <path id="Rectangle" d="M100.181 349.345 L135.22 349.345 135.22 66.353 100.181 66.353 Z" fill="#009051" fill-opacity="1" stroke="none"/>
  <path id="Path" d="M197.484 179.683 L285.393 92.978 274.25 81.68 186.341 168.385 Z" fill="#000000" fill-opacity="1" stroke="none"/>
  <path id="Ellipse-1" d="M310 76.491 C310 65.536 301.119 56.656 290.164 56.656 279.209 56.656 270.328 65.536 270.328 76.491 270.328 87.447 279.209 96.327 290.164 96.327 301.119 96.327 310 87.447 310 76.491 Z" fill="#000000" fill-opacity="1" stroke="none"/>
  <path id="Ellipse-2" d="M219.196 166.414 C219.196 155.459 210.315 146.578 199.36 146.578 188.405 146.578 179.524 155.459 179.524 166.414 179.524 177.369 188.405 186.25 199.36 186.25 210.315 186.25 219.196 177.369 219.196 166.414 Z" fill="#000000" fill-opacity="1" stroke="none"/>
 </g>
</svg>
