<?xml version="1.0" encoding="UTF-8"?>
<svg width="16" height="16" viewBox="0 0 310 310" xmlns="http://www.w3.org/2000/svg" version="1.1">
 <g id="p">
  <path id="Ellipse" d="M127.591 211.514 C88.397 198.27 60.181 161.197 60.181 117.533 60.181 62.758 104.585 18.354 159.36 18.354 182.561 18.354 203.901 26.321 220.794 39.668 L196.814 63.922 C186.23 56.436 173.309 52.037 159.36 52.037 123.498 52.037 94.425 81.11 94.425 116.973 94.425 144.639 111.728 168.263 136.103 177.617 131.132 187.951 128.134 199.413 127.591 211.514 Z M256.347 138.367 C246.338 132.991 235.161 129.505 223.296 128.389 223.953 124.682 224.296 120.868 224.296 116.973 224.296 104.632 220.853 93.094 214.876 83.27 L239.194 58.678 C251.352 75.141 258.54 95.497 258.54 117.533 258.54 124.68 257.783 131.649 256.347 138.367 Z" fill="#009051" fill-opacity="1" stroke="none"/>
  <path id="Rectangle" d="M60.181 301.345 L95.221 301.345 95.221 18.353 60.181 18.353 Z" fill="#009051" fill-opacity="1" stroke="none"/>
  <path id="Path" d="M157.485 131.683 L245.393 44.978 234.25 33.68 146.341 120.385 Z" fill="#000000" fill-opacity="1" stroke="none"/>
  <path id="Ellipse-1" d="M270 28.491 C270 17.536 261.119 8.656 250.164 8.656 239.209 8.656 230.328 17.536 230.328 28.491 230.328 39.446 239.209 48.327 250.164 48.327 261.119 48.327 270 39.446 270 28.491 Z" fill="#000000" fill-opacity="1" stroke="none"/>
  <path id="Ellipse-2" d="M179.196 118.414 C179.196 107.459 170.315 98.578 159.36 98.578 148.405 98.578 139.524 107.459 139.524 118.414 139.524 129.369 148.405 138.25 159.36 138.25 170.315 138.25 179.196 129.369 179.196 118.414 Z" fill="#000000" fill-opacity="1" stroke="none"/>
 </g>
 <g id="Add-On">
  <path id="Path-1" d="M215 131 C168.332 131 130.5 168.832 130.5 215.5 L130.5 215.5 C130.5 262.168 168.332 300 215 300 L215 300 C261.668 300 299.5 262.168 299.5 215.5 L299.5 215.5 C299.5 168.832 261.668 131 215 131 Z" fill="#62b543" fill-opacity="0.704" stroke="none"/>
  <path id="I" d="M236 262 L194 262 194 252 209 252 209 178 194 178 194 168 236 168 236 178 222 178 222 252 236 252 Z" fill="#303030" fill-opacity="1" stroke="none"/>
 </g>
</svg>
