<?xml version="1.0" encoding="UTF-8"?>
<svg width="16" height="16" viewBox="0 0 310 310" xmlns="http://www.w3.org/2000/svg" xmlns:xlink="http://www.w3.org/1999/xlink" version="1.1">
  <g id="p">
   <path id="Ellipse" d="M159.36 216.712 C104.585 216.712 60.181 172.307 60.181 117.532 60.181 62.757 104.585 18.352 159.36 18.352 182.562 18.352 203.902 26.321 220.796 39.669 L196.814 63.922 C186.23 56.437 173.309 52.038 159.36 52.038 123.498 52.038 94.425 81.111 94.425 116.973 94.425 152.836 123.498 181.909 159.36 181.909 195.223 181.909 224.296 152.836 224.296 116.973 224.296 104.632 220.853 93.095 214.876 83.27 L239.194 58.676 C251.352 75.14 258.54 95.496 258.54 117.532 258.54 172.307 214.135 216.712 159.36 216.712 Z" fill="#009051" fill-opacity="1" stroke="none"/>
   <path id="Rectangle" d="M60.181 301.345 L95.221 301.345 95.221 18.353 60.181 18.353 Z" fill="#009051" fill-opacity="1" stroke="none"/>
   <path id="Path" d="M157.485 131.683 L245.393 44.978 234.25 33.68 146.341 120.385 Z" fill="#000000" fill-opacity="1" stroke="none"/>
   <path id="Ellipse-1" d="M270 28.491 C270 17.536 261.119 8.656 250.164 8.656 239.209 8.656 230.328 17.536 230.328 28.491 230.328 39.446 239.209 48.327 250.164 48.327 261.119 48.327 270 39.446 270 28.491 Z" fill="#000000" fill-opacity="1" stroke="none"/>
   <path id="Ellipse-2" d="M179.196 118.414 C179.196 107.459 170.315 98.578 159.36 98.578 148.405 98.578 139.524 107.459 139.524 118.414 139.524 129.369 148.405 138.25 159.36 138.25 170.315 138.25 179.196 129.369 179.196 118.414 Z" fill="#000000" fill-opacity="1" stroke="none"/>
  </g>
</svg>
